<svg xmlns="http://www.w3.org/2000/svg" viewBox="0 0 90.2 20.68"><g id="katman_2" data-name="katman 2"><g id="katman_1-2" data-name="katman 1"><path d="M27.12,3.83h4.75c2.19,0,3.56,1.36,3.56,3.12a2.81,2.81,0,0,1-1.7,2.61A3.32,3.32,0,0,1,36.25,13c0,2.26-1.55,3.82-4.49,3.82H27.12Zm4.26,5c1.09,0,1.64-.6,1.64-1.44S32.45,6,31.34,6H29.62V8.86Zm.23,5.74c1.46,0,2.16-.73,2.16-1.88s-.7-1.92-2.19-1.92h-2v3.8Z"/><path d="M37.27,12a5,5,0,0,1,10,0,5,5,0,0,1-10,0Zm5,2.72A2.57,2.57,0,0,0,44.85,12a2.59,2.59,0,1,0-5.17,0A2.57,2.57,0,0,0,42.27,14.76Z"/><path d="M48.68,3.83h2.44v13H48.68Z"/><path d="M59,11.38C59,10,58.32,9.3,57.28,9.3a1.83,1.83,0,0,0-1.85,2.08v5.41H53V7.29h2.44V8.52a3,3,0,0,1,2.72-1.41A3,3,0,0,1,60.93,8.7a3.51,3.51,0,0,1,3.14-1.59c2,0,3.46,1.26,3.46,4.16v5.52H65.07V11.38c0-1.35-.69-2.08-1.75-2.08a1.83,1.83,0,0,0-1.85,2.08v5.41H59Z"/><path d="M68.92,12a4.59,4.59,0,0,1,4.56-4.93,3.41,3.41,0,0,1,3,1.46h.06V7.29H79v9.5H76.57V15.51h-.06a3.41,3.41,0,0,1-3,1.46A4.59,4.59,0,0,1,68.92,12ZM74,14.78A2.58,2.58,0,0,0,76.62,12a2.65,2.65,0,1,0-5.29,0A2.6,2.6,0,0,0,74,14.78Z"/><path d="M83.76,11.93l-3.3-4.64h2.77l1.94,2.85L87.1,7.29h2.79l-3.3,4.64,3.61,4.86H87.39L85.17,13.7,83,16.79H80.15Z"/><path d="M20.6,11.41c-1.17.14-12.39.89-12.53-.27L6.9,6c-.12-1,6.73-2.88,10.24-3.4a10.34,10.34,0,1,0,3.49,8.85Zm-15,.46A1.57,1.57,0,1,1,6.75,10,1.56,1.56,0,0,1,5.56,11.87Z"/></g></g></svg>