<svg xmlns="http://www.w3.org/2000/svg" viewBox="0 0 621.75 90.5"><defs><style>.cls-1,.cls-2{fill:#fff;}.cls-1{fill-rule:evenodd;}</style></defs><g id="katman_2" data-name="katman 2"><g id="Ebene_1" data-name="Ebene 1"><path class="cls-1" d="M476.47,55.54l12.16-10.13c.77-.56,2.58-1.4,3.28-.14.28.49-.28,1.19-.7,1.54l-11.11,8.8A20.29,20.29,0,0,1,488,56.8l10.06-4.89c2.52-1.19,5.31-2.87,6.78-5.38,1-1.61,2.44-.63,1.82,1-1.68,4.34-11.81,8.25-16.08,10.14,8.53,3.42,15.31,11,6.78,18.93-3.42,3.36-12.37,8.25-16.42,2.52-1.54-2.17.49-6.43,2.24-5.1,1,.7-2.87,3.21.14,4.75,7,3.63,15.86-4.4,14.95-11.46-.7-5-5.87-7.34-10.13-8.74-2.8,1.12-5.73,2.38-8.67,3.29A25,25,0,0,1,471,62.88l-16,12.58a1.08,1.08,0,0,1-1.39-.35c0-.7.84-1.47,1.19-1.75l13.27-11c-1.88-.49-3.63-2.31-1.81-4,2.72-2.59,6.77-2.8,10.27-2.8Zm-6.85,5.66,4.61-3.84a8.39,8.39,0,0,0-5.94.91c-2,1.32-.28,2.86,1.33,2.93Zm3.84-.28a8.28,8.28,0,0,0,4.13-.21,41.72,41.72,0,0,0,8-3c-2.3-.77-4.75-.7-7.13-.91l-5,4.12ZM505,68.82c.21-.07.42-.14.49-.35a2.6,2.6,0,0,0-.07-2.17c-.56-.56-1.61,0-1.82.56a1.51,1.51,0,0,0,1.4,2Zm9.5-2.38c-1.61,2.73-2.86,7.41,1.47,8.25,5.45,1,10.76-3.15,14.81-6.22-.76,2.65,1.89,3.21,3.85,1.81l9.92-6.77c-1.12,1.53-2.59,3.14-2.79,5.17-.14,1.6.76,2.58,2.37,2.16,2.94-.62,5.87-2.86,8.18-4.54-.07.91.21,1.75,1.12,1.89,1.46.35,3.07-.7,4.33-1.47.7,2.52,3.63.42,4.89-.56l11.46-8.59-3.21,5c-.63.84-2.1,3.07-.63,4.05,1.88,1.19,5.31-2.58,6.22-3.49,0,.77.34,1.46,1.25,1.46,1.33.07,2.31-.83,3.22-1.53.28,1.53,1.54,1.81,3,1.12,1.82-.91,3.08-2.94,4.47-4.41-.41,1.12-1.32,2.94-.62,4.06,1.11,1.67,3.14-.56,3.91-1.26l11-9.86-4,6.22c-1.12.28-2.45.84-2.8,2a3.41,3.41,0,0,0,.28,1.61L594.42,65c-.41.56-.77,1.68,0,2,1.19.49,2-1.61,2.31-2.1l1.12-2a12.71,12.71,0,0,0,5.52-1.89c7.62,1.68,18,8.67,16.84,17.61-1,6.92-23.27,7.34-24,7.41-4.19.42-48.15,4.68-54.57.84-1.61-.91.41-2,1.32-2.1,4.06-.56,9.3,1.12,10.14.91,2.58-.56-.63-2.38-1.4-2.52-2.8-.63-12.72-1.88-12.3,3.22.28,4.33,19,4.12,21.17,4,13.42-.42,26.91-1.68,40.39-3,4.69-.42,17.61-2.31,20.62-6.15.91-5.31-2.52-12.79-6.36-16a26.83,26.83,0,0,0-10.34-5.38c1.25-1.25,6.08-6.5,2.44-7.68-1.81-.7-1.54.48-.63,1.46,1.47,1.68-2.3,4.82-3.42,5.73l-2.94-.63,5.87-8.73,4.19-.42c.5,0,2,.56,2-.21.21-1.12-.76-1.33-1.67-1.33l-3.85.28c.35-.35,1.82-1.4,1.47-2.09s-1.12,0-1.4.28l-2.23,2.16-23.69,2.59,3.42-3c.91-.84-.21-1.81-1.12-1l-4.82,4.48-24.88,3.7,4.62-4.4a.84.84,0,0,0-.42-1.47c-.77,0-1.4.77-2,1.26l-5.59,5.31-6.22,1.19c-3.49.56-5,3.49-3.7,3.14,1.12-.14,1.53-1.33,2.65-1.47l5-.83L533.56,68.89c-.28.28-.84.7-1.19.14s.56-1.47.91-2l8-9.57c.36-.35.49-1.19-.27-1.33-1-.14-2.1,1.19-2.66,1.75.49-2.17-.07-4.34-2.45-4.76-2.72-.55-5.72,1.05-8.24,2.24.35-.35,1.12-1.82-.14-1.47-3.7.91-12.58,9.16-14.95,11.95-.91,1.05-4.06,3.85-4.2,5.31-.14,2.45,2.31-.56,2.38-.77a28.91,28.91,0,0,1,3.7-4Zm6.36-5.38c3.7-3.21,9-6.15,14-6.29,3.56,0,.91,5-.07,6.5a30.72,30.72,0,0,1-16.91,11.46c-2.94.77-3.5-1.61-2.45-4a19.92,19.92,0,0,1,5.45-7.62Zm37,4.19c-.77.91-5,2.94-4.13.21.7-1.95,5.87-5.59,6.36-3.42.07.7-1.74,2.45-2.23,3.21Zm-6-7.82,24.53-3.92-14.82,11.6c-.35.35-1.61,1.12-1.33-.07.35-1.46,2.73-1.88,3.15-3.35.35-1.19-1.54-.56-2-.21a1.61,1.61,0,0,0-1.68-1.4,5.34,5.34,0,0,0-2,.49c.07-.7-.42-1.81-1.19-1.12-2.52,2.17-1.33,2.38-6.29,6.22-1,.77-4.82,4.2-6.29,3.78-.91-.28-.14-1.54.14-1.89l7.76-10.13ZM580,53l22.92-2.58L589.6,62c.84-1.54,2.73-4.68.35-5.87-1.4-.77-1.61,1-1.47,2l-4.26,4.19c-.7.63-1.74.7-1.12-.21l2.31-2.94c.77-1.11-1-.83-1.47-.83a8.6,8.6,0,0,1-4.47,4.12c-1.61.56-.07-2,.07-2.24.28-.84-.63-.7-1-.35-.91.7-5.73,4.82-6.5,4.82-1.11,0,.35-1.88.49-2L580,53Zm1.95,4.34c-1.53-.35.14-1.82.57-2.24.83-.7,2.51-.7,1.81.7-.56.84-1.33,1.75-2.38,1.54Zm3.29-.84c-.77-.49.35-1.75.77-2.1,1.12-.77,1.68.35.91,1.19-.35.49-1,1.19-1.68.91Zm13.56,4.89.83-1.33,2.24.42a5.68,5.68,0,0,1-3.07.91Z"/><path class="cls-2" d="M10.9,22.67h-3L0,.25H3.19L9.33,18.44h.13L15.84.25H19Z"/><path class="cls-2" d="M25.43,6.83a7.2,7.2,0,0,1,5,1.7,6.06,6.06,0,0,1,1.84,4.68v9.46H29.56V20.54h-.13a5.5,5.5,0,0,1-4.76,2.63,6.19,6.19,0,0,1-4.24-1.5,4.8,4.8,0,0,1-1.71-3.76,4.56,4.56,0,0,1,1.8-3.79,7.62,7.62,0,0,1,4.81-1.41,8.6,8.6,0,0,1,4.23.94V13a3.29,3.29,0,0,0-1.19-2.55,4.09,4.09,0,0,0-2.79-1,4.41,4.41,0,0,0-3.82,2l-2.53-1.6A7.06,7.06,0,0,1,25.43,6.83ZM21.7,18a2.32,2.32,0,0,0,.95,1.88,3.54,3.54,0,0,0,2.24.75,4.62,4.62,0,0,0,3.24-1.34,4.23,4.23,0,0,0,1.43-3.17A5.92,5.92,0,0,0,25.8,15a4.86,4.86,0,0,0-2.93.85A2.5,2.5,0,0,0,21.7,18Z"/><path class="cls-2" d="M41.33,22.92a4.37,4.37,0,0,1-3.11-1.16A4.27,4.27,0,0,1,37,18.54V10h-2.7V7.33H37V2.63h2.88v4.7h3.76V10H39.83V17.6a2.84,2.84,0,0,0,.59,2.08,2,2,0,0,0,1.35.55,3,3,0,0,0,.67-.08,3.36,3.36,0,0,0,.61-.2L44,22.51A7.77,7.77,0,0,1,41.33,22.92Z"/><path class="cls-2" d="M51.85,6.83a7.17,7.17,0,0,1,5,1.7,6.07,6.07,0,0,1,1.85,4.68v9.46H56V20.54h-.12a5.51,5.51,0,0,1-4.76,2.63,6.19,6.19,0,0,1-4.24-1.5,4.8,4.8,0,0,1-1.71-3.76A4.56,4.56,0,0,1,47,14.12a7.58,7.58,0,0,1,4.81-1.41,8.53,8.53,0,0,1,4.22.94V13a3.26,3.26,0,0,0-1.19-2.55,4.06,4.06,0,0,0-2.78-1,4.41,4.41,0,0,0-3.82,2l-2.54-1.6A7.08,7.08,0,0,1,51.85,6.83ZM48.13,18a2.29,2.29,0,0,0,.95,1.88,3.52,3.52,0,0,0,2.24.75,4.62,4.62,0,0,0,3.24-1.34A4.22,4.22,0,0,0,56,16.09,5.89,5.89,0,0,0,52.23,15a4.84,4.84,0,0,0-2.93.85A2.5,2.5,0,0,0,48.13,18Z"/><path class="cls-2" d="M62,7.33h2.75V9.46h.13a5.13,5.13,0,0,1,2-1.88,5.79,5.79,0,0,1,2.83-.75,5.67,5.67,0,0,1,4.34,1.61A6.44,6.44,0,0,1,75.59,13v9.64H72.71V13.21q-.1-3.75-3.79-3.75A3.59,3.59,0,0,0,66,10.85a5,5,0,0,0-1.16,3.33v8.49H62Z"/><path class="cls-2" d="M82.1,7.33V22.67H79.22V7.33Z"/><path class="cls-2" d="M85.86,7.33h2.75V9.46h.13a5.06,5.06,0,0,1,2-1.88,5.76,5.76,0,0,1,2.83-.75,5.67,5.67,0,0,1,4.34,1.61A6.43,6.43,0,0,1,99.44,13v9.64H96.56V13.21q-.09-3.75-3.78-3.75a3.62,3.62,0,0,0-2.89,1.39,5.05,5.05,0,0,0-1.15,3.33v8.49H85.86Z"/><path class="cls-2" d="M106,7.33V22.67h-2.88V7.33Z"/><path class="cls-2" d="M123.49,23.17a7.32,7.32,0,0,1-5.57-2.32A8.16,8.16,0,0,1,115.73,15a8.31,8.31,0,0,1,2.12-5.84A7.68,7.68,0,0,1,128.74,9a8.87,8.87,0,0,1,2,6.19l0,.31h-12a5,5,0,0,0,1.5,3.63,4.86,4.86,0,0,0,7.77-1.37L130.5,19a7.68,7.68,0,0,1-2.86,3A7.91,7.91,0,0,1,123.49,23.17Zm-4.6-10h8.8a3.9,3.9,0,0,0-1.3-2.65,4.6,4.6,0,0,0-3.15-1,4.14,4.14,0,0,0-2.8,1A4.73,4.73,0,0,0,118.89,13.15Z"/><path class="cls-2" d="M133.39,7.33h2.75V9.46h.13a5.06,5.06,0,0,1,2-1.88,5.76,5.76,0,0,1,2.83-.75,5.67,5.67,0,0,1,4.34,1.61A6.43,6.43,0,0,1,147,13v9.64h-2.88V13.21q-.09-3.75-3.78-3.75a3.62,3.62,0,0,0-2.89,1.39,5.05,5.05,0,0,0-1.15,3.33v8.49h-2.88Z"/><path class="cls-2" d="M167.51,27.08a2.85,2.85,0,0,1-.9,2.13,3.12,3.12,0,0,1-2.26.88,3,3,0,0,1-1.78-.58A3.12,3.12,0,0,1,161.41,28l1.63-.72a1.29,1.29,0,0,0,1.31,1.07,1.26,1.26,0,0,0,.93-.36,1.22,1.22,0,0,0,.36-.9,1.29,1.29,0,0,0-.36-.93,1.24,1.24,0,0,0-.93-.38,1.27,1.27,0,0,0-1,.5l-1.47-.69.94-2.53a7.65,7.65,0,0,1-4.67-2.73A8.31,8.31,0,0,1,156.37,15a8.14,8.14,0,0,1,2.22-5.86,7.58,7.58,0,0,1,5.67-2.31A7.23,7.23,0,0,1,168.36,8,7.1,7.1,0,0,1,171,11.24l-2.63,1.1a4.32,4.32,0,0,0-4.29-2.88,4.45,4.45,0,0,0-3.41,1.59A5.76,5.76,0,0,0,159.25,15a5.73,5.73,0,0,0,1.41,3.94,4.42,4.42,0,0,0,3.41,1.6,4.52,4.52,0,0,0,4.45-2.88l2.56,1.1a6.84,6.84,0,0,1-2.53,3.17,7.36,7.36,0,0,1-4.07,1.24l-.44,1,.63-.06a2.68,2.68,0,0,1,2,.85A2.87,2.87,0,0,1,167.51,27.08Z"/><path class="cls-2" d="M172.56,15a8.14,8.14,0,0,1,2.22-5.86,7.58,7.58,0,0,1,5.67-2.31,7.48,7.48,0,0,1,5.63,2.31A8.09,8.09,0,0,1,188.34,15a8,8,0,0,1-2.26,5.85,7.45,7.45,0,0,1-5.63,2.32,7.55,7.55,0,0,1-5.67-2.32A8.1,8.1,0,0,1,172.56,15Zm2.88,0a5.63,5.63,0,0,0,1.44,4A4.93,4.93,0,0,0,184,19a5.63,5.63,0,0,0,1.44-4A5.58,5.58,0,0,0,184,11a4.86,4.86,0,0,0-7.14,0A5.58,5.58,0,0,0,175.44,15Z"/><path class="cls-2" d="M204.31,22.67h-3.48L196,15.44l-2.35,2.31v4.92h-2.88V.25h2.88V14.06l6.64-6.73H204v.12l-6,6,6.27,9.14Z"/><path class="cls-2" d="M224.56,18.41a4.13,4.13,0,0,1-1.75,3.38,6.92,6.92,0,0,1-4.41,1.38,7.05,7.05,0,0,1-4.08-1.2,6.68,6.68,0,0,1-2.5-3.18l2.57-1.1A4.72,4.72,0,0,0,216,19.84a4,4,0,0,0,2.37.76,4.16,4.16,0,0,0,2.3-.59,1.71,1.71,0,0,0,.92-1.41q0-1.47-2.25-2.16l-2.63-.66q-4.49-1.12-4.48-4.32A4,4,0,0,1,214,8.09a7.18,7.18,0,0,1,4.37-1.26,7.05,7.05,0,0,1,3.68,1,5.21,5.21,0,0,1,2.3,2.6l-2.56,1.06a3.28,3.28,0,0,0-1.43-1.52,4.53,4.53,0,0,0-2.21-.55,3.69,3.69,0,0,0-2,.57,1.62,1.62,0,0,0-.89,1.37c0,.88.83,1.51,2.47,1.88l2.32.6Q224.57,14.94,224.56,18.41Z"/><path class="cls-2" d="M234.11,23.17a7.32,7.32,0,0,1-5.57-2.32A8.16,8.16,0,0,1,226.35,15a8.32,8.32,0,0,1,2.13-5.84A7.67,7.67,0,0,1,239.36,9a8.87,8.87,0,0,1,2,6.19l0,.31H229.29a5,5,0,0,0,1.5,3.63,4.86,4.86,0,0,0,7.77-1.37L241.13,19a7.78,7.78,0,0,1-2.87,3A7.91,7.91,0,0,1,234.11,23.17Zm-4.6-10h8.8A3.9,3.9,0,0,0,237,10.5a4.58,4.58,0,0,0-3.15-1,4.16,4.16,0,0,0-2.8,1A4.79,4.79,0,0,0,229.51,13.15Z"/><path class="cls-2" d="M251.15,22.67h-2.88l-6.2-15.34h3.13l4.51,11.9h.06l4.57-11.9h3.07Z"/><path class="cls-2" d="M265.71,23.17a7.33,7.33,0,0,1-5.58-2.32A8.16,8.16,0,0,1,257.94,15a8.32,8.32,0,0,1,2.13-5.84A7.67,7.67,0,0,1,271,9a8.82,8.82,0,0,1,2,6.19l0,.31H260.88a5,5,0,0,0,1.51,3.63,4.85,4.85,0,0,0,7.76-1.37L272.72,19a7.71,7.71,0,0,1-2.87,3A7.9,7.9,0,0,1,265.71,23.17Zm-4.61-10h8.8a3.82,3.82,0,0,0-1.3-2.65,4.58,4.58,0,0,0-3.14-1,4.19,4.19,0,0,0-2.81,1A4.79,4.79,0,0,0,261.1,13.15Z"/><path class="cls-2" d="M275.6,7.33h2.76V9.46h.12a5.13,5.13,0,0,1,2-1.88,5.79,5.79,0,0,1,2.83-.75,5.65,5.65,0,0,1,4.34,1.61A6.44,6.44,0,0,1,289.19,13v9.64h-2.88V13.21c-.06-2.5-1.33-3.75-3.79-3.75a3.59,3.59,0,0,0-2.88,1.39,5.06,5.06,0,0,0-1.16,3.33v8.49H275.6Z"/><path class="cls-2" d="M293.54,26.18l-1.34-.88,1.69-2.63a1.94,1.94,0,0,1-1.57-1.94,2.12,2.12,0,0,1,2.13-2.13,2.07,2.07,0,0,1,1.52.61,2.09,2.09,0,0,1,.61,1.52,3.56,3.56,0,0,1-.63,1.85Z"/><path class="cls-2" d="M313.52,29.93a8.88,8.88,0,0,1-2.41-.32,7.52,7.52,0,0,1-2.05-.93,6.34,6.34,0,0,1-1.59-1.41,6.16,6.16,0,0,1-1-1.81l2.73-1.13a4.27,4.27,0,0,0,1.62,2.16,4.6,4.6,0,0,0,2.7.81,4.8,4.8,0,0,0,3.66-1.4A5.47,5.47,0,0,0,318.5,22V20.54h-.13a5.69,5.69,0,0,1-2.21,1.93,6.58,6.58,0,0,1-3,.7A6.76,6.76,0,0,1,308,20.82,8.48,8.48,0,0,1,305.85,15,8.35,8.35,0,0,1,308,9.21a6.73,6.73,0,0,1,5.16-2.38,6.58,6.58,0,0,1,3,.7,5.61,5.61,0,0,1,2.21,1.93h.13V7.33h2.75V22a7.79,7.79,0,0,1-2.1,5.79A7.62,7.62,0,0,1,313.52,29.93Zm.09-9.39A4.43,4.43,0,0,0,317.09,19a5.71,5.71,0,0,0,1.41-4,5.73,5.73,0,0,0-1.41-4,4.65,4.65,0,0,0-6.95,0,5.73,5.73,0,0,0-1.41,4,5.66,5.66,0,0,0,1.41,4A4.47,4.47,0,0,0,313.61,20.54Z"/><path class="cls-2" d="M323.73,15A8.14,8.14,0,0,1,326,9.14a7.58,7.58,0,0,1,5.67-2.31,7.48,7.48,0,0,1,5.63,2.31A8.09,8.09,0,0,1,339.51,15a8,8,0,0,1-2.26,5.85,7.45,7.45,0,0,1-5.63,2.32A7.55,7.55,0,0,1,326,20.85,8.1,8.1,0,0,1,323.73,15Zm2.88,0a5.63,5.63,0,0,0,1.44,4,4.93,4.93,0,0,0,7.14,0,5.63,5.63,0,0,0,1.44-4,5.58,5.58,0,0,0-1.44-4,4.86,4.86,0,0,0-7.14,0A5.58,5.58,0,0,0,326.61,15Zm4.16-12.93a1.72,1.72,0,0,1-.52,1.25,1.72,1.72,0,0,1-2.5,0,1.67,1.67,0,0,1-.55-1.23A1.71,1.71,0,0,1,327.73.8,1.72,1.72,0,0,1,329,.28a1.71,1.71,0,0,1,1.79,1.79Zm5.26,0a1.72,1.72,0,0,1-.52,1.25,1.72,1.72,0,0,1-2.5,0,1.67,1.67,0,0,1-.55-1.23A1.71,1.71,0,0,1,333,.8a1.84,1.84,0,0,1,2.54,0A1.76,1.76,0,0,1,336,2.07Z"/><path class="cls-2" d="M344.7,22.67h-2.88V7.33h2.76v2.5h.12a4.23,4.23,0,0,1,1.8-2.08,5,5,0,0,1,2.68-.86,5.38,5.38,0,0,1,2.13.37l-.88,2.79a4.9,4.9,0,0,0-1.69-.22,3.72,3.72,0,0,0-2.83,1.32,4.41,4.41,0,0,0-1.21,3.07Z"/><path class="cls-2" d="M359.14,23.17a7.34,7.34,0,0,1-5.58-2.32A8.16,8.16,0,0,1,351.37,15a8.32,8.32,0,0,1,2.13-5.84A7.67,7.67,0,0,1,364.38,9a8.82,8.82,0,0,1,2,6.19l0,.31H354.32a5,5,0,0,0,1.5,3.63,4.85,4.85,0,0,0,7.76-1.37L366.15,19a7.75,7.75,0,0,1-2.86,3A7.94,7.94,0,0,1,359.14,23.17Zm-4.6-10h8.79A3.82,3.82,0,0,0,362,10.5a4.58,4.58,0,0,0-3.14-1,4.19,4.19,0,0,0-2.81,1A4.78,4.78,0,0,0,354.54,13.15Z"/><path class="cls-2" d="M376.17,22.67h-2.88l-6.2-15.34h3.13l4.51,11.9h.06l4.58-11.9h3.06Z"/><path class="cls-2" d="M388,2a2,2,0,0,1-.6,1.44,2,2,0,0,1-1.44.59,2,2,0,0,1-2-2,2,2,0,0,1,2-2,2,2,0,0,1,1.44.59A2,2,0,0,1,388,2Zm-.6,5.29V22.67h-2.88V7.33Z"/><path class="cls-2" d="M391.2,7.33H394V9.46h.12a5.13,5.13,0,0,1,2-1.88,5.79,5.79,0,0,1,2.83-.75,5.65,5.65,0,0,1,4.34,1.61A6.44,6.44,0,0,1,404.79,13v9.64h-2.88V13.21c-.06-2.5-1.33-3.75-3.79-3.75a3.59,3.59,0,0,0-2.88,1.39,5.06,5.06,0,0,0-1.16,3.33v8.49H391.2Z"/><path class="cls-2" d="M411.9,2a2,2,0,0,1-.6,1.44,2,2,0,0,1-1.44.59,2,2,0,0,1-2-2,2,2,0,0,1,2-2,2,2,0,0,1,1.44.59A2,2,0,0,1,411.9,2Zm-.6,5.29V22.67h-2.88V7.33Z"/><path class="cls-2" d="M428.84,23.17a7.33,7.33,0,0,1-5.58-2.32A8.16,8.16,0,0,1,421.07,15a8.32,8.32,0,0,1,2.13-5.84A7.67,7.67,0,0,1,434.08,9a8.82,8.82,0,0,1,2,6.19l0,.31H424a5,5,0,0,0,1.51,3.63,4.85,4.85,0,0,0,7.76-1.37L435.85,19a7.75,7.75,0,0,1-2.86,3A8,8,0,0,1,428.84,23.17Zm-4.61-10H433a3.82,3.82,0,0,0-1.3-2.65,4.58,4.58,0,0,0-3.14-1,4.19,4.19,0,0,0-2.81,1A4.79,4.79,0,0,0,424.23,13.15Z"/><path class="cls-2" d="M438.73,7.33h2.76V9.46h.12a5.13,5.13,0,0,1,2-1.88,5.79,5.79,0,0,1,2.83-.75,5.65,5.65,0,0,1,4.34,1.61A6.44,6.44,0,0,1,452.32,13v9.64h-2.88V13.21c-.06-2.5-1.33-3.75-3.79-3.75a3.59,3.59,0,0,0-2.88,1.39,5.06,5.06,0,0,0-1.16,3.33v8.49h-2.88Z"/><path class="cls-2" d="M466.32,2a2,2,0,0,1-.6,1.44,2.05,2.05,0,0,1-2.88,0A2,2,0,0,1,462.25,2a2,2,0,0,1,.59-1.45,2.05,2.05,0,0,1,2.88,0A2,2,0,0,1,466.32,2Zm-.6,5.29V22.67h-2.88V7.33Z"/><path class="cls-2" d="M483.19,7.33l-9.61,22.1h-3l3.57-7.73L467.85,7.33H471l4.57,11h.06l4.45-11Z"/><path class="cls-2" d="M488.8,2a2,2,0,0,1-.6,1.44,2.05,2.05,0,0,1-2.88,0A2,2,0,0,1,484.73,2a2,2,0,0,1,.59-1.45,2.05,2.05,0,0,1,2.88,0A2,2,0,0,1,488.8,2Zm-.6,5.29V22.67h-2.88V7.33Z"/><path class="cls-2" d="M512.56,7.33,503,29.43h-3l3.57-7.73L497.22,7.33h3.13l4.57,11H505l4.45-11Z"/><path class="cls-2" d="M519.48,6.83a7.17,7.17,0,0,1,5,1.7,6.07,6.07,0,0,1,1.85,4.68v9.46h-2.76V20.54h-.12a5.51,5.51,0,0,1-4.76,2.63,6.18,6.18,0,0,1-4.24-1.5,4.8,4.8,0,0,1-1.71-3.76,4.56,4.56,0,0,1,1.8-3.79,7.58,7.58,0,0,1,4.81-1.41,8.53,8.53,0,0,1,4.22.94V13a3.26,3.26,0,0,0-1.19-2.55,4.06,4.06,0,0,0-2.78-1,4.41,4.41,0,0,0-3.82,2l-2.54-1.6A7.08,7.08,0,0,1,519.48,6.83ZM515.75,18a2.3,2.3,0,0,0,1,1.88,3.52,3.52,0,0,0,2.24.75,4.62,4.62,0,0,0,3.24-1.34,4.22,4.22,0,0,0,1.42-3.17A5.89,5.89,0,0,0,519.86,15a4.84,4.84,0,0,0-2.93.85A2.51,2.51,0,0,0,515.75,18Z"/><path class="cls-2" d="M537.61,23.17a6.57,6.57,0,0,1-3.08-.72,5.42,5.42,0,0,1-2.15-1.91h-.12l.12,2.13v6.76H529.5V7.33h2.76V9.46h.12a5.35,5.35,0,0,1,2.15-1.91,6.81,6.81,0,0,1,8.22,1.66A8.35,8.35,0,0,1,544.91,15a8.3,8.3,0,0,1-2.16,5.79A6.6,6.6,0,0,1,537.61,23.17Zm-.47-2.63A4.51,4.51,0,0,0,540.62,19,5.66,5.66,0,0,0,542,15a5.73,5.73,0,0,0-1.41-4,4.7,4.7,0,0,0-7,0,5.8,5.8,0,0,0-1.37,4,5.84,5.84,0,0,0,1.37,4A4.58,4.58,0,0,0,537.14,20.54Z"/><path class="cls-2" d="M553.36,6.83a7.17,7.17,0,0,1,5,1.7,6.07,6.07,0,0,1,1.85,4.68v9.46h-2.76V20.54h-.12a5.51,5.51,0,0,1-4.76,2.63,6.22,6.22,0,0,1-4.25-1.5,4.83,4.83,0,0,1-1.7-3.76,4.56,4.56,0,0,1,1.8-3.79,7.57,7.57,0,0,1,4.8-1.41,8.57,8.57,0,0,1,4.23.94V13a3.29,3.29,0,0,0-1.19-2.55,4.06,4.06,0,0,0-2.78-1,4.4,4.4,0,0,0-3.82,2l-2.54-1.6A7.07,7.07,0,0,1,553.36,6.83ZM549.63,18a2.3,2.3,0,0,0,1,1.88,3.5,3.5,0,0,0,2.24.75,4.62,4.62,0,0,0,3.24-1.34,4.22,4.22,0,0,0,1.42-3.17A5.92,5.92,0,0,0,553.73,15a4.83,4.83,0,0,0-2.92.85A2.49,2.49,0,0,0,549.63,18Z"/><path class="cls-2" d="M563.5,7.33h2.76V9.46h.12a5.2,5.2,0,0,1,2-1.88,5.83,5.83,0,0,1,2.84-.75,5.67,5.67,0,0,1,4.34,1.61A6.43,6.43,0,0,1,577.09,13v9.64h-2.88V13.21q-.09-3.75-3.79-3.75a3.61,3.61,0,0,0-2.88,1.39,5.06,5.06,0,0,0-1.16,3.33v8.49H563.5Z"/><path class="cls-2" d="M586.89,23.17a6.73,6.73,0,0,1-5.16-2.38A8.46,8.46,0,0,1,579.6,15a8.42,8.42,0,0,1,2.13-5.79,6.73,6.73,0,0,1,5.16-2.38,6.64,6.64,0,0,1,3.09.72,5.32,5.32,0,0,1,2.14,1.91h.13l-.13-2.13V.25H595V22.67h-2.75V20.54h-.13A5.39,5.39,0,0,1,590,22.45,6.64,6.64,0,0,1,586.89,23.17Zm.47-2.63A4.43,4.43,0,0,0,590.84,19a5.71,5.71,0,0,0,1.41-4,5.73,5.73,0,0,0-1.41-4,4.45,4.45,0,0,0-3.48-1.56A4.5,4.5,0,0,0,583.89,11a5.73,5.73,0,0,0-1.41,4,5.66,5.66,0,0,0,1.41,4A4.5,4.5,0,0,0,587.36,20.54Z"/><path class="cls-2" d="M601.64,7.33V22.67h-2.88V7.33Z"/><path class="cls-2" d="M608.28,22.67H605.4V7.33h2.75v2.5h.13a4.13,4.13,0,0,1,1.8-2.08,5,5,0,0,1,2.68-.86,5.45,5.45,0,0,1,2.13.37L614,10.05a4.94,4.94,0,0,0-1.69-.22,3.74,3.74,0,0,0-2.84,1.32,4.4,4.4,0,0,0-1.2,3.07Z"/><path class="cls-2" d="M618,20.73a2.07,2.07,0,0,1-.61,1.5,2,2,0,0,1-1.52.63,2.13,2.13,0,0,1-2.12-2.13,2,2,0,0,1,.62-1.52,2.07,2.07,0,0,1,1.5-.61A2.08,2.08,0,0,1,618,20.73Z"/></g></g></svg>